<svg width="19" height="18" viewBox="0 0 19 18" fill="none" xmlns="http://www.w3.org/2000/svg">
<g clip-path="url(#clip0_5846_3562)">
<path d="M13.4075 6.75001L10.1225 1.83001C9.98 1.62001 9.74 1.51501 9.5 1.51501C9.26 1.51501 9.02 1.62001 8.8775 1.83751L5.5925 6.75001H2C1.5875 6.75001 1.25 7.08751 1.25 7.50001C1.25 7.56751 1.2575 7.63501 1.28 7.70251L3.185 14.655C3.3575 15.285 3.935 15.75 4.625 15.75H14.375C15.065 15.75 15.6425 15.285 15.8225 14.655L17.7275 7.70251L17.75 7.50001C17.75 7.08751 17.4125 6.75001 17 6.75001H13.4075ZM7.25 6.75001L9.5 3.45001L11.75 6.75001H7.25ZM9.5 12.75C8.675 12.75 8 12.075 8 11.25C8 10.425 8.675 9.75001 9.5 9.75001C10.325 9.75001 11 10.425 11 11.25C11 12.075 10.325 12.75 9.5 12.75Z" fill="#143149"/>
</g>
<defs>
<clipPath id="clip0_5846_3562">
<rect width="18" height="18" fill="white" transform="translate(0.5)"/>
</clipPath>
</defs>
</svg>
