<svg width="32" height="32" viewBox="0 0 32 32" fill="none" xmlns="http://www.w3.org/2000/svg">
<g clip-path="url(#clip0_504_106)">
<path d="M16.2221 0.444458C7.52225 0.444458 0.444336 7.52237 0.444336 16.2222C0.444336 24.9221 7.52225 32 16.2221 32C24.922 32 31.9999 24.9221 31.9999 16.2222C31.9999 7.52237 24.922 0.444458 16.2221 0.444458ZM16.2221 2.54816C23.7628 2.54816 29.8962 8.68256 29.8962 16.2222C29.8962 19.2779 28.8769 22.0926 27.1761 24.372C25.856 22.0537 23.3821 20.5327 20.6241 20.5327H11.8212C9.06426 20.5338 6.58925 22.0558 5.26918 24.372C3.56834 22.0937 2.54804 19.2779 2.54804 16.2222C2.54804 8.68256 8.68244 2.54816 16.2221 2.54816ZM6.76807 26.077C7.58431 24.0291 9.57546 22.6364 11.8222 22.6364H20.6241C22.8719 22.6364 24.861 24.0291 25.6783 26.077C23.219 28.4353 19.891 29.8963 16.2221 29.8963C12.5543 29.8963 9.2273 28.4353 6.76807 26.077Z" fill="#3D3D3D"/>
<path d="M16.2222 19.3042C19.3809 19.3042 21.9495 16.5304 21.9495 13.1214C21.9495 9.71233 19.3809 6.9386 16.2222 6.9386C13.0645 6.9386 10.4949 9.71233 10.4949 13.1214C10.4949 16.5304 13.0645 19.3042 16.2222 19.3042ZM16.2222 9.0423C18.2207 9.0423 19.8458 10.8715 19.8458 13.1214C19.8458 15.3713 18.2207 17.2005 16.2222 17.2005C14.2247 17.2005 12.5986 15.3713 12.5986 13.1214C12.5986 10.8715 14.2247 9.0423 16.2222 9.0423Z" fill="#3D3D3D"/>
</g>
<defs>
<clipPath id="clip0_504_106">
<rect width="32" height="32" fill="white"/>
</clipPath>
</defs>
</svg>
