<svg width="20" height="20" viewBox="0 0 20 20" fill="none" xmlns="http://www.w3.org/2000/svg">
<path d="M13.3332 8.33329V18.3333C13.3332 18.3333 6.6665 16.6666 6.6665 9.16663V8.33329C6.6665 7.72496 6.99984 7.19163 7.49984 6.89996L8.5415 7.49996L9.99984 6.66663L11.4582 7.49996L12.4998 6.89996C12.9998 7.19163 13.3332 7.72496 13.3332 8.33329ZM9.99984 5.41663L11.4582 6.24996L12.7248 5.52496C12.2665 4.71663 11.5915 4.11663 10.8082 3.87496C10.7376 3.26768 10.4466 2.70741 9.9904 2.30037C9.53422 1.89334 8.94454 1.66784 8.33317 1.66663V3.33329C8.69984 3.33329 8.99984 3.57496 9.1165 3.90829C8.35817 4.16663 7.7165 4.74996 7.27484 5.52496L8.5415 6.24996L9.99984 5.41663Z" fill="#DE1A49"/>
</svg>
