<svg width="20" height="20" viewBox="0 0 20 20" fill="none" xmlns="http://www.w3.org/2000/svg">
<path d="M16.0478 11.8024C15.2985 12.2578 14.4379 12.4974 13.5611 12.4945C12.8265 12.4887 12.1002 12.3385 11.4236 12.0524C10.9021 12.7885 10.623 13.6689 10.6252 14.5711V16.875C10.6253 16.9607 10.6079 17.0455 10.5739 17.1242C10.54 17.2028 10.4902 17.2736 10.4277 17.3323C10.3652 17.3909 10.2913 17.436 10.2107 17.4649C10.13 17.4937 10.0442 17.5057 9.95875 17.5C9.7981 17.486 9.64867 17.4118 9.54044 17.2923C9.43221 17.1728 9.37316 17.0167 9.37515 16.8555V15.8836L6.35796 12.8664C5.90945 13.0337 5.4351 13.1213 4.9564 13.125C4.29739 13.1266 3.65073 12.9463 3.08765 12.6039C1.38531 11.5695 0.468901 9.18907 0.646245 6.2336C0.655174 6.0807 0.719938 5.9364 0.82824 5.8281C0.936542 5.71979 1.08084 5.65503 1.23374 5.6461C4.18921 5.47188 6.56968 6.38516 7.60093 8.08751C8.0061 8.75476 8.18298 9.5358 8.10484 10.3125C8.09998 10.3727 8.07779 10.4302 8.04096 10.478C8.00413 10.5258 7.95423 10.562 7.89729 10.5821C7.84035 10.6021 7.77882 10.6053 7.72013 10.5912C7.66143 10.577 7.60809 10.5462 7.56656 10.5024L6.06656 8.93204C5.94839 8.81978 5.79105 8.75811 5.62807 8.7602C5.4651 8.76229 5.30938 8.82796 5.19413 8.94321C5.07888 9.05846 5.01321 9.21417 5.01113 9.37715C5.00904 9.54012 5.0707 9.69747 5.18296 9.81563L9.39234 14.132C9.39703 14.0711 9.4025 14.0102 9.40874 13.95C9.54542 12.7912 10.0568 11.7088 10.865 10.8672L14.8173 6.69063C14.9346 6.57346 15.0005 6.4145 15.0006 6.24872C15.0007 6.08294 14.9349 5.92392 14.8177 5.80665C14.7006 5.68937 14.5416 5.62345 14.3758 5.62337C14.21 5.6233 14.051 5.68909 13.9337 5.80626L10.1056 9.85469C10.0673 9.89528 10.0188 9.92487 9.96519 9.94037C9.91157 9.95587 9.85477 9.95673 9.80071 9.94286C9.74664 9.92898 9.69728 9.90088 9.65775 9.86147C9.61822 9.82206 9.58997 9.77278 9.57593 9.71876C9.20562 8.35313 9.3689 6.99376 10.0759 5.82657C11.4712 3.52345 14.7181 2.29063 18.7619 2.52813C18.9148 2.53706 19.0591 2.60183 19.1674 2.71013C19.2757 2.81843 19.3404 2.96273 19.3494 3.11563C19.5837 7.16016 18.3509 10.407 16.0478 11.8024Z" fill="#00B368"/>
</svg>
