<svg width="100%" height="100%" viewBox="0 0 96 47" fill="none" xmlns="http://www.w3.org/2000/svg">
<path d="M6.5339 17.3634C6.53387 14.9107 7.24354 12.513 8.57338 10.4727C9.90322 8.43237 11.7936 6.84092 14.0062 5.89912C16.2187 4.95731 18.6541 4.70734 21.0053 5.18074C23.3565 5.65414 25.518 6.8297 27.2171 8.5591C28.554 7.88371 30.0473 7.59974 31.532 7.73857C33.0166 7.8774 34.4349 8.43362 35.6301 9.34579C36.8253 10.258 37.7509 11.4906 38.3046 12.9074C38.8583 14.3242 39.0186 15.8702 38.7677 17.3744C39.1365 17.4095 39.4944 17.5219 39.8189 17.7048C40.1433 17.8877 40.4275 18.1371 40.6537 18.4374C40.8798 18.7378 41.043 19.0826 41.1331 19.4503C41.2233 19.8181 41.2384 20.2009 41.1775 20.575C39.9591 28.0769 36.9455 32.8253 32.1419 34.8229V36.677C32.1419 37.7747 31.7159 38.8274 30.9577 39.6035C30.1994 40.3797 29.1709 40.8157 28.0986 40.8157H17.3162C16.2439 40.8157 15.2154 40.3797 14.4571 39.6035C13.6989 38.8274 13.2729 37.7747 13.2729 36.677V34.8229C8.46933 32.8253 5.45567 28.0769 4.23727 20.575C4.17847 20.2109 4.19161 19.8384 4.27593 19.4796C4.36026 19.1209 4.51403 18.783 4.72817 18.4862C4.94231 18.1893 5.21245 17.9394 5.52262 17.7513C5.83278 17.5632 6.17666 17.4406 6.5339 17.391V17.3634ZM9.22949 17.3634H11.9251C11.9251 15.534 12.6351 13.7795 13.8989 12.4859C15.1627 11.1924 16.8767 10.4656 18.664 10.4656C20.4513 10.4656 22.1654 11.1924 23.4292 12.4859C24.693 13.7795 25.403 15.534 25.403 17.3634H28.0986C28.0986 14.8022 27.1046 12.346 25.3353 10.535C23.5659 8.72396 21.1662 7.70654 18.664 7.70654C16.1618 7.70654 13.7621 8.72396 11.9928 10.535C10.2235 12.346 9.22949 14.8022 9.22949 17.3634ZM14.6207 17.3634H22.7074C22.7074 16.2657 22.2814 15.2131 21.5231 14.4369C20.7648 13.6608 19.7364 13.2247 18.664 13.2247C17.5917 13.2247 16.5632 13.6608 15.8049 14.4369C15.0466 15.2131 14.6207 16.2657 14.6207 17.3634ZM33.1285 17.3634H36.0155C36.219 16.548 36.238 15.6958 36.071 14.8718C35.904 14.0477 35.5554 13.2736 35.0518 12.6083C34.5482 11.9431 33.9029 11.4043 33.1651 11.0329C32.4273 10.6616 31.6164 10.4676 30.7941 10.4656C30.1472 10.4656 29.5326 10.5815 28.9612 10.794C29.4383 11.5776 29.8318 12.4218 30.1337 13.3075C30.6471 13.1772 31.1867 13.204 31.6853 13.3847C32.1839 13.5654 32.6198 13.892 32.9387 14.3239C33.2577 14.7558 33.4457 15.2741 33.4794 15.8145C33.5132 16.3548 33.3911 16.8934 33.1285 17.3634ZM29.4464 35.2975H15.9684V36.677C15.9684 37.0429 16.1104 37.3938 16.3632 37.6525C16.616 37.9112 16.9588 38.0566 17.3162 38.0566H28.0986C28.456 38.0566 28.7988 37.9112 29.0516 37.6525C29.3044 37.3938 29.4464 37.0429 29.4464 36.677V35.2975ZM15.0196 32.5384H30.3952C34.6704 31.1313 37.3768 27.1526 38.5197 20.1225H6.89511C8.03804 27.1526 10.7444 31.1313 15.0196 32.5384Z" fill="#FF7F0F"/>
<path d="M54.6969 22.3619C54.6969 22.6126 54.6048 22.8303 54.4206 23.015C54.2495 23.1865 54.0389 23.2722 53.7889 23.2722H53.2954C52.69 23.2722 52.1702 23.0611 51.7359 22.639C51.3016 22.2036 51.0845 21.6759 51.0845 21.0558V10.8048C51.0845 10.541 51.17 10.3233 51.3411 10.1518C51.5253 9.98029 51.7425 9.89453 51.9925 9.89453H52.5453C52.7953 9.89453 53.0059 9.98029 53.1769 10.1518C53.3612 10.3233 53.4533 10.541 53.4533 10.8048V20.6798C53.4533 20.8513 53.5323 20.9371 53.6902 20.9371H53.7889C54.0389 20.9371 54.2495 21.0228 54.4206 21.1943C54.6048 21.3658 54.6969 21.5835 54.6969 21.8474V22.3619Z" fill="#FF7F0F"/>
<path d="M63.3973 21.0558C63.3973 21.6759 63.1802 22.2036 62.7459 22.639C62.3248 23.0611 61.8115 23.2722 61.2061 23.2722H58.4622C57.8569 23.2722 57.337 23.0611 56.9028 22.639C56.4685 22.2036 56.2513 21.6759 56.2513 21.0558V13.9514C56.2513 13.6875 56.3369 13.4698 56.508 13.2983C56.6922 13.1136 56.9093 13.0213 57.1594 13.0213H57.7121C57.9622 13.0213 58.1727 13.1136 58.3438 13.2983C58.5149 13.4698 58.6004 13.6875 58.6004 13.9514V20.6798C58.6004 20.7458 58.6267 20.8051 58.6794 20.8579C58.7452 20.9107 58.811 20.9371 58.8768 20.9371H60.7916C60.8574 20.9371 60.9166 20.9107 60.9693 20.8579C61.0351 20.8051 61.068 20.7458 61.068 20.6798V13.9514C61.068 13.6875 61.1535 13.4698 61.3246 13.2983C61.4957 13.1136 61.7062 13.0213 61.9563 13.0213H62.509C62.759 13.0213 62.9696 13.1136 63.1407 13.2983C63.3118 13.4698 63.3973 13.6875 63.3973 13.9514V21.0558Z" fill="#FF7F0F"/>
<path d="M72.1493 22.3619C72.1493 22.6126 72.0638 22.8303 71.8927 23.015C71.7216 23.1865 71.5111 23.2722 71.261 23.2722H70.7083C70.4583 23.2722 70.2477 23.1865 70.0766 23.015C69.9055 22.8303 69.82 22.6126 69.82 22.3619V15.6533C69.82 15.5741 69.7871 15.5081 69.7213 15.4554C69.6686 15.4026 69.6094 15.3762 69.5436 15.3762H67.6288C67.563 15.3762 67.4972 15.4026 67.4314 15.4554C67.3788 15.5081 67.3525 15.5741 67.3525 15.6533V22.3619C67.3525 22.6126 67.2669 22.8303 67.0958 23.015C66.9247 23.1865 66.7142 23.2722 66.4641 23.2722H65.9114C65.6614 23.2722 65.4442 23.1865 65.26 23.015C65.0889 22.8303 65.0034 22.6126 65.0034 22.3619V15.2377C65.0034 14.8287 65.1021 14.4593 65.2995 14.1295C65.51 13.7865 65.7798 13.516 66.1088 13.3181C66.4378 13.1202 66.8063 13.0213 67.2143 13.0213H69.9582C70.3661 13.0213 70.7346 13.1202 71.0636 13.3181C71.3926 13.516 71.6558 13.7865 71.8532 14.1295C72.0506 14.4593 72.1493 14.8287 72.1493 15.2377V22.3619Z" fill="#FF7F0F"/>
<path d="M80.9014 21.0558C80.9014 21.6759 80.6842 22.2036 80.2499 22.639C79.8288 23.0611 79.3156 23.2722 78.7102 23.2722H75.9663C75.3609 23.2722 74.8411 23.0611 74.4068 22.639C73.9725 22.2036 73.7554 21.6759 73.7554 21.0558V15.2377C73.7554 14.8287 73.8541 14.4593 74.0515 14.1295C74.2621 13.7865 74.5318 13.516 74.8608 13.3181C75.1898 13.1202 75.5583 13.0213 75.9663 13.0213H78.7102C79.1182 13.0213 79.4866 13.1202 79.8156 13.3181C80.1447 13.516 80.4079 13.7865 80.6053 14.1295C80.8027 14.4593 80.9014 14.8287 80.9014 15.2377V16.2667C80.9014 16.5174 80.8158 16.7351 80.6447 16.9198C80.4737 17.0913 80.2631 17.1771 80.0131 17.1771H79.4603C79.2103 17.1771 78.9997 17.0913 78.8286 16.9198C78.6576 16.7351 78.572 16.5174 78.572 16.2667V15.6533C78.572 15.5741 78.5391 15.5081 78.4733 15.4554C78.4207 15.4026 78.3615 15.3762 78.2957 15.3762H76.3808C76.315 15.3762 76.2492 15.4026 76.1834 15.4554C76.1308 15.5081 76.1045 15.5741 76.1045 15.6533V20.6798C76.1045 20.7458 76.1308 20.8051 76.1834 20.8579C76.2492 20.9107 76.315 20.9371 76.3808 20.9371H78.2957C78.3615 20.9371 78.4207 20.9107 78.4733 20.8579C78.5391 20.8051 78.572 20.7458 78.572 20.6798V20.0663C78.572 19.8157 78.6576 19.6046 78.8286 19.4331C78.9997 19.2484 79.2103 19.156 79.4603 19.156H80.0131C80.2631 19.156 80.4737 19.2484 80.6447 19.4331C80.8158 19.6046 80.9014 19.8157 80.9014 20.0663V21.0558Z" fill="#FF7F0F"/>
<path d="M89.6534 22.3619C89.6534 22.6126 89.5679 22.8303 89.3968 23.015C89.2257 23.1865 89.0151 23.2722 88.7651 23.2722H88.2124C87.9623 23.2722 87.7517 23.1865 87.5807 23.015C87.4096 22.8303 87.324 22.6126 87.324 22.3619V15.6533C87.324 15.5741 87.2911 15.5081 87.2253 15.4554C87.1727 15.4026 87.1135 15.3762 87.0477 15.3762H85.1329C85.0671 15.3762 85.0013 15.4026 84.9355 15.4554C84.8828 15.5081 84.8565 15.5741 84.8565 15.6533V22.3619C84.8565 22.6126 84.771 22.8303 84.5999 23.015C84.4288 23.1865 84.2182 23.2722 83.9682 23.2722H83.4155C83.1654 23.2722 82.9483 23.1865 82.764 23.015C82.593 22.8303 82.5074 22.6126 82.5074 22.3619V10.8048C82.5074 10.541 82.593 10.3233 82.764 10.1518C82.9483 9.98029 83.1654 9.89453 83.4155 9.89453H83.9682C84.2182 9.89453 84.4288 9.98029 84.5999 10.1518C84.771 10.3233 84.8565 10.541 84.8565 10.8048V12.7838C84.8565 12.8498 84.8828 12.9091 84.9355 12.9619C85.0013 13.0015 85.0671 13.0213 85.1329 13.0213H87.4622C87.8702 13.0213 88.2387 13.1202 88.5677 13.3181C88.8967 13.516 89.1599 13.7865 89.3573 14.1295C89.5547 14.4593 89.6534 14.8287 89.6534 15.2377V22.3619Z" fill="#FF7F0F"/>
<path d="M58.2502 35.8979C58.2502 36.518 58.033 37.0457 57.5988 37.4811C57.1776 37.9032 56.6644 38.1143 56.059 38.1143H53.3151C52.7098 38.1143 52.1899 37.9032 51.7556 37.4811C51.3214 37.0457 51.1042 36.518 51.1042 35.8979V33.7408C51.1042 33.3319 51.2029 32.9691 51.4003 32.6524C51.6109 32.3226 51.8807 32.0587 52.2097 31.8608C52.5387 31.663 52.9072 31.564 53.3151 31.564H55.6445C55.7103 31.564 55.7695 31.5376 55.8221 31.4848C55.8879 31.4321 55.9208 31.3661 55.9208 31.287V30.4954C55.9208 30.4162 55.8879 30.3503 55.8221 30.2975C55.7695 30.2447 55.7103 30.2183 55.6445 30.2183H53.3151C53.0651 30.2183 52.8479 30.1326 52.6637 29.9611C52.4926 29.7895 52.4071 29.5785 52.4071 29.3278V28.7935C52.4071 28.5296 52.4926 28.3119 52.6637 28.1404C52.8479 27.9557 53.0651 27.8634 53.3151 27.8634H56.059C56.467 27.8634 56.8355 27.9623 57.1645 28.1602C57.4935 28.3581 57.7567 28.6286 57.9541 28.9716C58.1515 29.3014 58.2502 29.6708 58.2502 30.0798V35.8979ZM55.9208 35.5219V34.1564C55.9208 34.0905 55.8879 34.0311 55.8221 33.9783C55.7695 33.9255 55.7103 33.8992 55.6445 33.8992H53.7297C53.6639 33.8992 53.5981 33.9255 53.5323 33.9783C53.4796 34.0311 53.4533 34.0905 53.4533 34.1564V35.5219C53.4533 35.5879 53.4796 35.6472 53.5323 35.7C53.5981 35.7528 53.6639 35.7792 53.7297 35.7792H55.6445C55.7103 35.7792 55.7695 35.7528 55.8221 35.7C55.8879 35.6472 55.9208 35.5879 55.9208 35.5219Z" fill="#FF7F0F"/>
<path d="M67.0022 35.8979C67.0022 36.518 66.7851 37.0457 66.3508 37.4811C65.9297 37.9032 65.4164 38.1143 64.811 38.1143H62.4817C62.4159 38.1143 62.3501 38.1407 62.2843 38.1935C62.2317 38.2463 62.2053 38.3056 62.2053 38.3716V40.3703C62.2053 40.621 62.1198 40.8321 61.9487 41.0036C61.7776 41.1883 61.5671 41.2806 61.317 41.2806H60.7643C60.5143 41.2806 60.2971 41.1883 60.1129 41.0036C59.9418 40.8321 59.8562 40.621 59.8562 40.3703V30.0798C59.8562 29.6708 59.9549 29.3014 60.1523 28.9716C60.3629 28.6286 60.6327 28.3581 60.9617 28.1602C61.2907 27.9623 61.6592 27.8634 62.0672 27.8634H64.811C65.219 27.8634 65.5875 27.9623 65.9165 28.1602C66.2455 28.3581 66.5087 28.6286 66.7061 28.9716C66.9035 29.3014 67.0022 29.6708 67.0022 30.0798V35.8979ZM64.6729 35.5219V30.4954C64.6729 30.4162 64.64 30.3503 64.5742 30.2975C64.5215 30.2447 64.4623 30.2183 64.3965 30.2183H62.4817C62.4159 30.2183 62.3501 30.2447 62.2843 30.2975C62.2317 30.3503 62.2053 30.4162 62.2053 30.4954V35.5219C62.2053 35.5879 62.2317 35.6472 62.2843 35.7C62.3501 35.7528 62.4159 35.7792 62.4817 35.7792H64.3965C64.4623 35.7792 64.5215 35.7528 64.5742 35.7C64.64 35.6472 64.6729 35.5879 64.6729 35.5219Z" fill="#FF7F0F"/>
<path d="M75.7542 35.8979C75.7542 36.518 75.5371 37.0457 75.1028 37.4811C74.6817 37.9032 74.1684 38.1143 73.5631 38.1143H71.2337C71.1679 38.1143 71.1021 38.1407 71.0363 38.1935C70.9837 38.2463 70.9574 38.3056 70.9574 38.3716V40.3703C70.9574 40.621 70.8718 40.8321 70.7007 41.0036C70.5297 41.1883 70.3191 41.2806 70.069 41.2806H69.5163C69.2663 41.2806 69.0491 41.1883 68.8649 41.0036C68.6938 40.8321 68.6083 40.621 68.6083 40.3703V30.0798C68.6083 29.6708 68.707 29.3014 68.9044 28.9716C69.1149 28.6286 69.3847 28.3581 69.7137 28.1602C70.0427 27.9623 70.4112 27.8634 70.8192 27.8634H73.5631C73.971 27.8634 74.3395 27.9623 74.6685 28.1602C74.9975 28.3581 75.2607 28.6286 75.4581 28.9716C75.6555 29.3014 75.7542 29.6708 75.7542 30.0798V35.8979ZM73.4249 35.5219V30.4954C73.4249 30.4162 73.392 30.3503 73.3262 30.2975C73.2736 30.2447 73.2143 30.2183 73.1485 30.2183H71.2337C71.1679 30.2183 71.1021 30.2447 71.0363 30.2975C70.9837 30.3503 70.9574 30.4162 70.9574 30.4954V35.5219C70.9574 35.5879 70.9837 35.6472 71.0363 35.7C71.1021 35.7528 71.1679 35.7792 71.2337 35.7792H73.1485C73.2143 35.7792 73.2736 35.7528 73.3262 35.7C73.392 35.6472 73.4249 35.5879 73.4249 35.5219Z" fill="#FF7F0F"/>
</svg>
