<svg width="31" height="29" viewBox="0 0 31 29" fill="none" xmlns="http://www.w3.org/2000/svg">
<path d="M2.39074 10.0386C2.39071 8.05555 2.96592 6.11695 4.04379 4.46734C5.12166 2.81774 6.6539 1.53104 8.4472 0.769583C10.2405 0.00812295 12.2145 -0.193982 14.1202 0.188765C16.0259 0.571513 17.7778 1.52197 19.155 2.92021C20.2386 2.37415 21.449 2.14455 22.6523 2.2568C23.8557 2.36905 25.0053 2.81876 25.974 3.55625C26.9427 4.29375 27.6929 5.29032 28.1417 6.43585C28.5905 7.58139 28.7204 8.8313 28.5171 10.0475C28.816 10.0758 29.1061 10.1668 29.3691 10.3146C29.6321 10.4625 29.8624 10.6641 30.0457 10.907C30.229 11.1498 30.3613 11.4285 30.4343 11.7259C30.5074 12.0232 30.5196 12.3328 30.4703 12.6352C29.4828 18.7006 27.0401 22.5397 23.1467 24.1548V25.6539C23.1467 26.5413 22.8014 27.3924 22.1868 28.0199C21.5722 28.6475 20.7387 29 19.8695 29H11.1301C10.2609 29 9.42734 28.6475 8.81273 28.0199C8.19812 27.3924 7.85284 26.5413 7.85284 25.6539V24.1548C3.95946 22.5397 1.5168 18.7006 0.529256 12.6352C0.481596 12.3408 0.492253 12.0397 0.560597 11.7496C0.628941 11.4595 0.753584 11.1864 0.927148 10.9463C1.10071 10.7063 1.31967 10.5043 1.57107 10.3522C1.82246 10.2001 2.10119 10.101 2.39074 10.0609V10.0386ZM4.57558 10.0386H6.76042C6.76042 8.55947 7.33589 7.14097 8.36024 6.0951C9.38458 5.04923 10.7739 4.46166 12.2225 4.46166C13.6712 4.46166 15.0605 5.04923 16.0848 6.0951C17.1092 7.14097 17.6846 8.55947 17.6846 10.0386H19.8695C19.8695 7.96784 19.0638 5.98193 17.6297 4.51771C16.1957 3.05349 14.2506 2.23091 12.2225 2.23091C10.1944 2.23091 8.2494 3.05349 6.81532 4.51771C5.38124 5.98193 4.57558 7.96784 4.57558 10.0386ZM8.94526 10.0386H15.4998C15.4998 9.15111 15.1545 8.3 14.5399 7.67248C13.9253 7.04496 13.0917 6.69242 12.2225 6.69242C11.3533 6.69242 10.5198 7.04496 9.90515 7.67248C9.29054 8.3 8.94526 9.15111 8.94526 10.0386ZM23.9464 10.0386H26.2863C26.4513 9.37931 26.4667 8.69031 26.3313 8.02407C26.1959 7.35784 25.9134 6.73194 25.5053 6.19407C25.0971 5.6562 24.5741 5.22056 23.976 4.92034C23.378 4.62012 22.7207 4.46324 22.0543 4.46166C21.5299 4.46166 21.0318 4.55536 20.5686 4.72712C20.9553 5.36066 21.2743 6.04327 21.519 6.75934C21.9352 6.65396 22.3724 6.67566 22.7766 6.82175C23.1808 6.96783 23.534 7.23188 23.7925 7.58111C24.0511 7.93034 24.2034 8.34939 24.2308 8.78625C24.2581 9.22312 24.1592 9.65856 23.9464 10.0386ZM20.9619 24.5385H10.0377V25.6539C10.0377 25.9497 10.1528 26.2334 10.3576 26.4426C10.5625 26.6517 10.8404 26.7692 11.1301 26.7692H19.8695C20.1592 26.7692 20.4371 26.6517 20.6419 26.4426C20.8468 26.2334 20.9619 25.9497 20.9619 25.6539V24.5385ZM9.26862 22.3077H21.731C25.1961 21.17 27.3897 17.9533 28.3161 12.2693H2.68351C3.60988 17.9533 5.80346 21.17 9.26862 22.3077Z" fill="#FF7F0F"/>
</svg>
