<svg width="26" height="48" viewBox="0 0 26 48" fill="none" xmlns="http://www.w3.org/2000/svg">
<path d="M2.35249 7.92518C2.35247 6.35964 2.81562 4.82917 3.68352 3.52685C4.55141 2.22453 5.78517 1.20872 7.22912 0.607566C8.67308 0.00641286 10.2625 -0.153144 11.797 0.149025C13.3314 0.451195 14.7421 1.20155 15.851 2.30543C16.7235 1.87433 17.6981 1.69307 18.667 1.78168C19.636 1.8703 20.5616 2.22534 21.3416 2.80757C22.1216 3.3898 22.7257 4.17657 23.0871 5.08094C23.4484 5.98531 23.553 6.97208 23.3893 7.93222C23.63 7.95459 23.8635 8.02638 24.0753 8.14313C24.2871 8.25987 24.4725 8.41906 24.6201 8.61075C24.7677 8.80245 24.8742 9.02254 24.933 9.25728C24.9919 9.49203 25.0017 9.73639 24.962 9.97513C24.1669 14.7636 22.2 17.7945 19.0651 19.0696V20.2531C19.0651 20.9537 18.7871 21.6256 18.2922 22.121C17.7973 22.6164 17.1261 22.8947 16.4263 22.8947H9.38938C8.68952 22.8947 8.01832 22.6164 7.52345 22.121C7.02857 21.6256 6.75055 20.9537 6.75055 20.2531V19.0696C3.61561 17.7945 1.6488 14.7636 0.853635 9.97513C0.815259 9.74274 0.82384 9.505 0.878871 9.27599C0.933901 9.04698 1.03426 8.83134 1.17402 8.64185C1.31377 8.45235 1.49007 8.29285 1.6925 8.17277C1.89492 8.0527 2.11934 7.9745 2.35249 7.94279V7.92518ZM4.11172 7.92518H5.87094C5.87094 6.75748 6.3343 5.63761 7.1591 4.81192C7.98389 3.98623 9.10256 3.52237 10.269 3.52237C11.4354 3.52237 12.5541 3.98623 13.3789 4.81192C14.2037 5.63761 14.6671 6.75748 14.6671 7.92518H16.4263C16.4263 6.2904 15.7776 4.72258 14.6228 3.56662C13.4681 2.41065 11.902 1.76124 10.269 1.76124C8.63598 1.76124 7.06985 2.41065 5.91514 3.56662C4.76043 4.72258 4.11172 6.2904 4.11172 7.92518ZM7.63016 7.92518H12.9078C12.9078 7.22456 12.6298 6.55263 12.1349 6.05722C11.6401 5.56181 10.9689 5.28349 10.269 5.28349C9.56913 5.28349 8.89793 5.56181 8.40306 6.05722C7.90818 6.55263 7.63016 7.22456 7.63016 7.92518ZM19.709 7.92518H21.5931C21.7259 7.40472 21.7383 6.86077 21.6293 6.33479C21.5203 5.80882 21.2928 5.31469 20.9642 4.89005C20.6355 4.46542 20.2144 4.12149 19.7329 3.88448C19.2513 3.64746 18.7221 3.52361 18.1855 3.52237C17.7633 3.52237 17.3622 3.59633 16.9892 3.73194C17.3006 4.2321 17.5575 4.771 17.7545 5.33632C18.0896 5.25313 18.4417 5.27026 18.7671 5.38559C19.0925 5.50092 19.377 5.70938 19.5851 5.98509C19.7933 6.2608 19.916 6.59162 19.938 6.93652C19.96 7.28141 19.8804 7.62518 19.709 7.92518ZM17.3059 19.3725H8.50977V20.2531C8.50977 20.4866 8.60244 20.7106 8.7674 20.8757C8.93236 21.0408 9.1561 21.1336 9.38938 21.1336H16.4263C16.6596 21.1336 16.8833 21.0408 17.0483 20.8757C17.2132 20.7106 17.3059 20.4866 17.3059 20.2531V19.3725ZM7.89052 17.6114H17.9251C20.7153 16.7132 22.4815 14.1736 23.2274 9.6863H2.58823C3.33414 14.1736 5.1004 16.7132 7.89052 17.6114Z" fill="#FF7F0F"/>
<path d="M2.77216 35.7997C2.77216 35.9597 2.71204 36.0986 2.5918 36.2165C2.48014 36.326 2.34272 36.3807 2.17954 36.3807H1.85746C1.46238 36.3807 1.12312 36.246 0.839694 35.9765C0.556265 35.6986 0.414551 35.3618 0.414551 34.966V28.4228C0.414551 28.2544 0.470378 28.1155 0.582031 28.006C0.702274 27.8965 0.843988 27.8418 1.00717 27.8418H1.3679C1.53109 27.8418 1.66851 27.8965 1.78016 28.006C1.9004 28.1155 1.96052 28.2544 1.96052 28.4228V34.726C1.96052 34.8355 2.01206 34.8902 2.11512 34.8902H2.17954C2.34272 34.8902 2.48014 34.945 2.5918 35.0544C2.71204 35.1639 2.77216 35.3029 2.77216 35.4713V35.7997Z" fill="#FF7F0F"/>
<path d="M8.45029 34.966C8.45029 35.3618 8.30858 35.6986 8.02515 35.9765C7.75031 36.246 7.41535 36.3807 7.02027 36.3807H5.22952C4.83443 36.3807 4.49518 36.246 4.21175 35.9765C3.92832 35.6986 3.78661 35.3618 3.78661 34.966V30.4313C3.78661 30.2629 3.84243 30.1239 3.95409 30.0144C4.07433 29.8965 4.21604 29.8376 4.37923 29.8376H4.73996C4.90314 29.8376 5.04056 29.8965 5.15222 30.0144C5.26387 30.1239 5.3197 30.2629 5.3197 30.4313V34.726C5.3197 34.7681 5.33687 34.806 5.37123 34.8397C5.41417 34.8734 5.45712 34.8902 5.50006 34.8902H6.74972C6.79267 34.8902 6.83132 34.8734 6.86567 34.8397C6.90861 34.806 6.93009 34.7681 6.93009 34.726V30.4313C6.93009 30.2629 6.98591 30.1239 7.09757 30.0144C7.20922 29.8965 7.34664 29.8376 7.50983 29.8376H7.87055C8.03374 29.8376 8.17116 29.8965 8.28281 30.0144C8.39447 30.1239 8.45029 30.2629 8.45029 30.4313V34.966Z" fill="#FF7F0F"/>
<path d="M14.1621 35.7997C14.1621 35.9597 14.1063 36.0986 13.9947 36.2165C13.883 36.326 13.7456 36.3807 13.5824 36.3807H13.2217C13.0585 36.3807 12.9211 36.326 12.8094 36.2165C12.6978 36.0986 12.6419 35.9597 12.6419 35.7997V31.5176C12.6419 31.4671 12.6205 31.425 12.5775 31.3913C12.5432 31.3576 12.5045 31.3407 12.4616 31.3407H11.2119C11.169 31.3407 11.126 31.3576 11.0831 31.3913C11.0487 31.425 11.0315 31.4671 11.0315 31.5176V35.7997C11.0315 35.9597 10.9757 36.0986 10.8641 36.2165C10.7524 36.326 10.615 36.3807 10.4518 36.3807H10.0911C9.92789 36.3807 9.78618 36.326 9.66594 36.2165C9.55428 36.0986 9.49846 35.9597 9.49846 35.7997V31.2523C9.49846 30.9913 9.56287 30.7555 9.6917 30.545C9.82912 30.326 10.0052 30.1534 10.2199 30.0271C10.4346 29.9007 10.6751 29.8376 10.9414 29.8376H12.7321C12.9984 29.8376 13.2389 29.9007 13.4536 30.0271C13.6683 30.1534 13.8401 30.326 13.9689 30.545C14.0977 30.7555 14.1621 30.9913 14.1621 31.2523V35.7997Z" fill="#FF7F0F"/>
<path d="M19.874 34.966C19.874 35.3618 19.7323 35.6986 19.4489 35.9765C19.174 36.246 18.8391 36.3807 18.444 36.3807H16.6532C16.2581 36.3807 15.9189 36.246 15.6355 35.9765C15.352 35.6986 15.2103 35.3618 15.2103 34.966V31.2523C15.2103 30.9913 15.2747 30.7555 15.4036 30.545C15.541 30.326 15.717 30.1534 15.9318 30.0271C16.1465 29.9007 16.387 29.8376 16.6532 29.8376H18.444C18.7102 29.8376 18.9507 29.9007 19.1654 30.0271C19.3801 30.1534 19.5519 30.326 19.6807 30.545C19.8096 30.7555 19.874 30.9913 19.874 31.2523V31.9092C19.874 32.0692 19.8182 32.2081 19.7065 32.326C19.5949 32.4355 19.4574 32.4902 19.2943 32.4902H18.9335C18.7703 32.4902 18.6329 32.4355 18.5213 32.326C18.4096 32.2081 18.3538 32.0692 18.3538 31.9092V31.5176C18.3538 31.4671 18.3323 31.425 18.2894 31.3913C18.255 31.3576 18.2164 31.3407 18.1734 31.3407H16.9238C16.8808 31.3407 16.8379 31.3576 16.7949 31.3913C16.7606 31.425 16.7434 31.4671 16.7434 31.5176V34.726C16.7434 34.7681 16.7606 34.806 16.7949 34.8397C16.8379 34.8734 16.8808 34.8902 16.9238 34.8902H18.1734C18.2164 34.8902 18.255 34.8734 18.2894 34.8397C18.3323 34.806 18.3538 34.7681 18.3538 34.726V34.3344C18.3538 34.1744 18.4096 34.0397 18.5213 33.9302C18.6329 33.8123 18.7703 33.7534 18.9335 33.7534H19.2943C19.4574 33.7534 19.5949 33.8123 19.7065 33.9302C19.8182 34.0397 19.874 34.1744 19.874 34.3344V34.966Z" fill="#FF7F0F"/>
<path d="M25.5858 35.7997C25.5858 35.9597 25.53 36.0986 25.4184 36.2165C25.3067 36.326 25.1693 36.3807 25.0061 36.3807H24.6454C24.4822 36.3807 24.3448 36.326 24.2331 36.2165C24.1215 36.0986 24.0656 35.9597 24.0656 35.7997V31.5176C24.0656 31.4671 24.0442 31.425 24.0012 31.3913C23.9669 31.3576 23.9282 31.3407 23.8853 31.3407H22.6356C22.5927 31.3407 22.5497 31.3576 22.5068 31.3913C22.4724 31.425 22.4552 31.4671 22.4552 31.5176V35.7997C22.4552 35.9597 22.3994 36.0986 22.2878 36.2165C22.1761 36.326 22.0387 36.3807 21.8755 36.3807H21.5148C21.3516 36.3807 21.2099 36.326 21.0896 36.2165C20.978 36.0986 20.9222 35.9597 20.9222 35.7997V28.4228C20.9222 28.2544 20.978 28.1155 21.0896 28.006C21.2099 27.8965 21.3516 27.8418 21.5148 27.8418H21.8755C22.0387 27.8418 22.1761 27.8965 22.2878 28.006C22.3994 28.1155 22.4552 28.2544 22.4552 28.4228V29.686C22.4552 29.7281 22.4724 29.766 22.5068 29.7997C22.5497 29.825 22.5927 29.8376 22.6356 29.8376H24.1558C24.4221 29.8376 24.6626 29.9007 24.8773 30.0271C25.092 30.1534 25.2638 30.326 25.3926 30.545C25.5214 30.7555 25.5858 30.9913 25.5858 31.2523V35.7997Z" fill="#FF7F0F"/>
<path d="M5.09112 44.4397C5.09112 44.8355 4.94941 45.1723 4.66598 45.4502C4.39114 45.7197 4.05618 45.8544 3.6611 45.8544H1.87034C1.47526 45.8544 1.13601 45.7197 0.852577 45.4502C0.569148 45.1723 0.427434 44.8355 0.427434 44.4397V43.0629C0.427434 42.8018 0.49185 42.5702 0.620681 42.3681C0.758101 42.1576 0.93417 41.9892 1.14889 41.8629C1.36361 41.7365 1.60409 41.6734 1.87034 41.6734H3.39055C3.43349 41.6734 3.47214 41.6565 3.5065 41.6229C3.54944 41.5892 3.57091 41.5471 3.57091 41.4965V40.9913C3.57091 40.9407 3.54944 40.8986 3.5065 40.865C3.47214 40.8313 3.43349 40.8144 3.39055 40.8144H1.87034C1.70716 40.8144 1.56544 40.7597 1.4452 40.6502C1.33355 40.5407 1.27772 40.406 1.27772 40.246V39.905C1.27772 39.7365 1.33355 39.5976 1.4452 39.4881C1.56544 39.3702 1.70716 39.3113 1.87034 39.3113H3.6611C3.92735 39.3113 4.16783 39.3744 4.38255 39.5007C4.59727 39.6271 4.76904 39.7997 4.89788 40.0186C5.02671 40.2292 5.09112 40.465 5.09112 40.726V44.4397ZM3.57091 44.1997V43.3281C3.57091 43.286 3.54944 43.2481 3.5065 43.2144C3.47214 43.1807 3.43349 43.1639 3.39055 43.1639H2.14089C2.09794 43.1639 2.055 43.1807 2.01206 43.2144C1.9777 43.2481 1.96052 43.286 1.96052 43.3281V44.1997C1.96052 44.2418 1.9777 44.2797 2.01206 44.3134C2.055 44.3471 2.09794 44.3639 2.14089 44.3639H3.39055C3.43349 44.3639 3.47214 44.3471 3.5065 44.3134C3.54944 44.2797 3.57091 44.2418 3.57091 44.1997Z" fill="#FF7F0F"/>
<path d="M10.803 44.4397C10.803 44.8355 10.6613 45.1723 10.3778 45.4502C10.103 45.7197 9.76803 45.8544 9.37295 45.8544H7.85274C7.8098 45.8544 7.76685 45.8713 7.72391 45.905C7.68955 45.9386 7.67238 45.9765 7.67238 46.0186V47.2944C7.67238 47.4544 7.61655 47.5892 7.50489 47.6986C7.39324 47.8165 7.25582 47.8755 7.09264 47.8755H6.73191C6.56872 47.8755 6.42701 47.8165 6.30677 47.6986C6.19511 47.5892 6.13928 47.4544 6.13928 47.2944V40.726C6.13928 40.465 6.2037 40.2292 6.33253 40.0186C6.46995 39.7997 6.64602 39.6271 6.86074 39.5007C7.07546 39.3744 7.31594 39.3113 7.58219 39.3113H9.37295C9.6392 39.3113 9.87968 39.3744 10.0944 39.5007C10.3091 39.6271 10.4809 39.7997 10.6097 40.0186C10.7386 40.2292 10.803 40.465 10.803 40.726V44.4397ZM9.28277 44.1997V40.9913C9.28277 40.9407 9.26129 40.8986 9.21835 40.865C9.18399 40.8313 9.14534 40.8144 9.1024 40.8144H7.85274C7.8098 40.8144 7.76685 40.8313 7.72391 40.865C7.68955 40.8986 7.67238 40.9407 7.67238 40.9913V44.1997C7.67238 44.2418 7.68955 44.2797 7.72391 44.3134C7.76685 44.3471 7.8098 44.3639 7.85274 44.3639H9.1024C9.14534 44.3639 9.18399 44.3471 9.21835 44.3134C9.26129 44.2797 9.28277 44.2418 9.28277 44.1997Z" fill="#FF7F0F"/>
<path d="M16.5148 44.4397C16.5148 44.8355 16.3731 45.1723 16.0897 45.4502C15.8148 45.7197 15.4799 45.8544 15.0848 45.8544H13.5646C13.5216 45.8544 13.4787 45.8713 13.4358 45.905C13.4014 45.9386 13.3842 45.9765 13.3842 46.0186V47.2944C13.3842 47.4544 13.3284 47.5892 13.2167 47.6986C13.1051 47.8165 12.9677 47.8755 12.8045 47.8755H12.4438C12.2806 47.8755 12.1389 47.8165 12.0186 47.6986C11.907 47.5892 11.8511 47.4544 11.8511 47.2944V40.726C11.8511 40.465 11.9156 40.2292 12.0444 40.0186C12.1818 39.7997 12.3579 39.6271 12.5726 39.5007C12.7873 39.3744 13.0278 39.3113 13.294 39.3113H15.0848C15.351 39.3113 15.5915 39.3744 15.8063 39.5007C16.021 39.6271 16.1927 39.7997 16.3216 40.0186C16.4504 40.2292 16.5148 40.465 16.5148 40.726V44.4397ZM14.9946 44.1997V40.9913C14.9946 40.9407 14.9731 40.8986 14.9302 40.865C14.8958 40.8313 14.8572 40.8144 14.8143 40.8144H13.5646C13.5216 40.8144 13.4787 40.8313 13.4358 40.865C13.4014 40.8986 13.3842 40.9407 13.3842 40.9913V44.1997C13.3842 44.2418 13.4014 44.2797 13.4358 44.3134C13.4787 44.3471 13.5216 44.3639 13.5646 44.3639H14.8143C14.8572 44.3639 14.8958 44.3471 14.9302 44.3134C14.9731 44.2797 14.9946 44.2418 14.9946 44.1997Z" fill="#FF7F0F"/>
</svg>
